<svg width="32" height="32" viewBox="0 0 32 32" fill="none" xmlns="http://www.w3.org/2000/svg">
<g id="Flag">
<path id="Vector" d="M0 0H4V32H0V0Z" fill="black"/>
<g id="Banner">
<path id="Vector_2" d="M26 20.0939C28.582 20.0939 30.83 19.4689 32 18.5469V2.54688C30.83 3.46887 28.582 4.09387 26 4.09387C23.418 4.09387 21.17 3.46887 20 2.54688V18.5469C21.17 19.4689 23.418 20.0939 26 20.0939Z" fill="black"/>
<path id="Vector_3" d="M19 1.016C17.534 0.393 15.39 0 13 0C9.988 0 7.365 0.625 6 1.547V17.547C7.365 16.625 9.988 16 13 16C15.39 16 17.534 16.393 19 17.016V1.016Z" fill="black"/>
</g>
</g>
</svg>
