<svg width="751" height="752" viewBox="0 0 751 752" fill="none" xmlns="http://www.w3.org/2000/svg">
<g filter="url(#filter0_d_5_3)">
<path d="M728.093 354.04L686.031 342.962C680.958 341.613 675.666 341.316 670.473 342.092C665.13 300.352 650.681 260.289 628.167 224.743L664.131 163.764C672.469 149.701 669.11 141.488 664.876 137.133C660.646 132.779 652.433 129.295 638.245 137.133L582.495 168.868V168.863C534.542 122.915 472.511 94.4667 406.402 88.1027L388.105 19.78C383.626 3.97732 375.662 0.618652 369.313 0.618652C363.219 0.618652 355.13 3.97799 350.771 19.78L331.859 89.7173C269.318 98.7121 211.286 127.447 166.219 171.728L105.985 137.379C91.7968 129.29 83.7088 132.775 79.3541 137.379C75 141.983 71.7656 149.821 80.0989 164.009L119.552 230.468C98.9216 264.656 85.7762 302.828 80.9736 342.468C75.7705 341.728 70.4788 342.067 65.4162 343.463L23.3536 354.541C7.30157 358.145 4.06689 366.234 4.06689 372.333C4.06689 378.432 7.42623 386.521 23.2336 390.749L64.5456 401.452C69.2904 402.733 74.1862 403.4 79.1029 403.442H79.9727C83.5716 444.551 95.962 484.4 116.311 520.296L80.098 581.026C71.7595 595.214 75.1188 603.302 79.3532 607.656C82.2855 610.677 86.3428 612.349 90.5511 612.26C96.0303 612.005 101.348 610.333 105.983 607.411L158.374 577.547V577.542C205.108 627.302 267.644 659.318 335.334 668.136L350.76 724.885C354.99 740.688 363.203 743.926 369.302 743.926C375.4 743.926 383.49 740.567 387.843 724.885L402.9 669.385L402.906 669.38C474.156 663.328 540.799 631.625 590.439 580.156L638.1 607.286C642.741 610.208 648.053 611.88 653.532 612.135C657.741 612.224 661.798 610.557 664.73 607.531C668.959 603.177 672.319 595.089 663.985 580.901L631.881 526.27H631.876C654.324 488.811 667.907 446.713 671.574 403.197H672.449C677.271 403.212 682.079 402.629 686.755 401.452L727.823 390.624C743.75 386.519 746.99 378.181 746.99 372.332C746.99 366.482 744 358.144 728.073 354.04L728.093 354.04ZM523.627 231.212L534.705 224.863L631.522 169.732L602.902 218.388L569.429 275.258L569.424 275.263C568.616 277.44 566.663 278.982 564.361 279.268C562.059 279.56 559.788 278.539 558.47 276.632L522.257 241.044C520.413 239.867 519.424 237.732 519.715 235.565C520.012 233.399 521.538 231.602 523.627 230.961L523.627 231.212ZM336.96 164.884L369.064 46.5345L384.247 102.534L398.184 154.056L401.049 164.759C402.033 166.748 401.809 169.129 400.46 170.894C399.116 172.665 396.887 173.514 394.705 173.097H343.559C341.377 173.514 339.143 172.665 337.799 170.894C336.455 169.129 336.226 166.748 337.21 164.759L336.96 164.884ZM220.356 513.324L154.277 550.657L112.709 574.922L174.933 469.392V469.397C175.902 467.381 177.73 465.913 179.913 465.413C181.923 465.579 183.798 466.517 185.137 468.027L221.225 503.615C223.068 504.792 224.063 506.928 223.771 509.094C223.475 511.261 221.949 513.058 219.86 513.699L220.356 513.324ZM221.601 241.164L185.513 276.752V276.757C184.195 278.663 181.924 279.679 179.622 279.392C177.32 279.106 175.372 277.564 174.56 275.387V274.392L112.586 169.736L162.362 197.862L220.977 231.211H220.982C223.071 231.852 224.597 233.649 224.894 235.81C225.185 237.977 224.19 240.117 222.347 241.289L221.601 241.164ZM401.174 579.657L369.07 698.006L356.627 653.704L336.591 579.782H336.586C335.602 577.793 335.831 575.413 337.175 573.647C338.524 571.881 340.753 571.027 342.935 571.444H394.457C396.639 571.027 398.868 571.881 400.217 573.647C401.561 575.413 401.79 577.793 400.8 579.782L401.174 579.657ZM369.314 409.67C359.47 409.441 350.111 405.327 343.283 398.228C336.455 391.129 332.705 381.618 332.862 371.769C333.013 361.92 337.049 352.529 344.096 345.644C351.143 338.758 360.623 334.941 370.471 335.014C380.32 335.092 389.741 339.055 396.684 346.045C403.621 353.034 407.517 362.487 407.523 372.337C407.523 382.389 403.47 392.019 396.278 399.05C389.09 406.076 379.366 409.905 369.314 409.67ZM594.554 553.777L523.622 513.46C521.534 512.819 520.008 511.022 519.711 508.861C519.419 506.694 520.409 504.554 522.252 503.382L541.794 484.34L558.596 467.914H558.591C559.935 466.403 561.805 465.466 563.82 465.299C565.997 465.799 567.831 467.268 568.794 469.284L573.523 477.372L630.893 574.935L594.554 553.777Z" fill="black"/>
</g>
<defs>
<filter id="filter0_d_5_3" x="0.0668945" y="0.618652" width="750.923" height="751.308" filterUnits="userSpaceOnUse" color-interpolation-filters="sRGB">
<feFlood flood-opacity="0" result="BackgroundImageFix"/>
<feColorMatrix in="SourceAlpha" type="matrix" values="0 0 0 0 0 0 0 0 0 0 0 0 0 0 0 0 0 0 127 0" result="hardAlpha"/>
<feOffset dy="4"/>
<feGaussianBlur stdDeviation="2"/>
<feComposite in2="hardAlpha" operator="out"/>
<feColorMatrix type="matrix" values="0 0 0 0 0 0 0 0 0 0 0 0 0 0 0 0 0 0 0.25 0"/>
<feBlend mode="normal" in2="BackgroundImageFix" result="effect1_dropShadow_5_3"/>
<feBlend mode="normal" in="SourceGraphic" in2="effect1_dropShadow_5_3" result="shape"/>
</filter>
</defs>
</svg>
